<?xml version="1.0" encoding="UTF-8" standalone="no"?>
<!-- Created with Inkscape (http://www.inkscape.org/) -->

<svg
   width="640"
   height="640"
   viewBox="0 0 169.33333 169.33333"
   version="1.1"
   id="svg1"
   inkscape:version="1.4 (86a8ad7, 2024-10-11)"
   sodipodi:docname="profile.svg"
   inkscape:export-filename="D:\Pictures\profile.png"
   inkscape:export-xdpi="96"
   inkscape:export-ydpi="96"
   xmlns:inkscape="http://www.inkscape.org/namespaces/inkscape"
   xmlns:sodipodi="http://sodipodi.sourceforge.net/DTD/sodipodi-0.dtd"
   xmlns="http://www.w3.org/2000/svg"
   xmlns:svg="http://www.w3.org/2000/svg">
  <sodipodi:namedview
     id="namedview1"
     pagecolor="#0a214f"
     bordercolor="#000000"
     borderopacity="0.25"
     inkscape:showpageshadow="2"
     inkscape:pageopacity="0.0"
     inkscape:pagecheckerboard="0"
     inkscape:deskcolor="#d1d1d1"
     inkscape:document-units="mm"
     showguides="true"
     inkscape:zoom="0.93303299"
     inkscape:cx="385.30256"
     inkscape:cy="320.99615"
     inkscape:window-width="1920"
     inkscape:window-height="1009"
     inkscape:window-x="-8"
     inkscape:window-y="-8"
     inkscape:window-maximized="1"
     inkscape:current-layer="layer2" />
  <defs
     id="defs1">
    <linearGradient
       id="swatch72"
       inkscape:swatch="solid">
      <stop
         style="stop-color:#ffffff;stop-opacity:1;"
         offset="0"
         id="stop72" />
    </linearGradient>
    <linearGradient
       id="swatch60"
       inkscape:swatch="solid">
      <stop
         style="stop-color:#000000;stop-opacity:1;"
         offset="0"
         id="stop60" />
    </linearGradient>
  </defs>
  <g
     inkscape:groupmode="layer"
     id="layer6"
     inkscape:label="Layer 6"
     style="display:inline">
    <rect
       style="fill:#0a214f;fill-opacity:1;fill-rule:nonzero;stroke:#0a214f;stroke-width:0.465;stroke-dasharray:none;stroke-opacity:1"
       id="rect168"
       width="169.63007"
       height="169.87733"
       x="0"
       y="-0.24727415"
       inkscape:label="rect168" />
    <path
       style="fill:#007989;fill-opacity:1;fill-rule:nonzero;stroke:#007989;stroke-width:0.465;stroke-dasharray:none;stroke-opacity:1"
       d="M 37.892934,96.918025 54.228078,101.05933 42.03424,112.56295 Z"
       id="path177" />
    <path
       style="fill:#007989;fill-opacity:1;fill-rule:nonzero;stroke:#007989;stroke-width:0.465;stroke-dasharray:none;stroke-opacity:1"
       d="m 19.556159,95.940217 4.141304,1.380435 -3.451086,2.990938 z"
       id="path178" />
    <path
       style="fill:#007989;fill-opacity:1;fill-rule:nonzero;stroke:#007989;stroke-width:0.465;stroke-dasharray:none;stroke-opacity:1"
       d="m 78.454709,136.43297 9.202899,-1.61051 -2.990942,8.05254 z"
       id="path179" />
    <path
       style="fill:#007989;fill-opacity:1;fill-rule:nonzero;stroke:#007989;stroke-width:0.465;stroke-dasharray:none;stroke-opacity:1"
       d="m 67.181158,153.45833 -2.760869,3.68116 4.533698,0.64928 z"
       id="path180"
       sodipodi:nodetypes="cccc" />
    <path
       style="fill:#007989;fill-opacity:1;fill-rule:nonzero;stroke:#007989;stroke-width:0.465;stroke-dasharray:none;stroke-opacity:1"
       d="m 159.18416,169.30686 -0.20409,-12.85759 -12.42391,7.59239 9.8004,5.34568"
       id="path181"
       sodipodi:nodetypes="cccc" />
    <path
       style="fill:#007989;fill-opacity:1;fill-rule:nonzero;stroke:#007989;stroke-width:0.465;stroke-dasharray:none;stroke-opacity:1"
       d="m 124.69927,128.15036 -0.27101,3.77573 3.26196,-1.47501 z"
       id="path182"
       sodipodi:nodetypes="cccc" />
  </g>
  <g
     inkscape:groupmode="layer"
     id="layer7"
     inkscape:label="Layer 2">
    <path
       style="fill:#007989;fill-opacity:1;fill-rule:nonzero;stroke:#007989;stroke-width:0.465;stroke-dasharray:none;stroke-opacity:1"
       d="m -1.598077,67.493737 -0.2425023,-70.9448237 174.1648493,0.2300723 10e-6,18.6358704 z"
       id="path170"
       sodipodi:nodetypes="ccccc" />
  </g>
  <g
     inkscape:groupmode="layer"
     id="layer3"
     inkscape:label="Layer 3"
     style="display:none">
    <path
       id="path144"
       style="fill:#ffffff;fill-opacity:1;fill-rule:nonzero;stroke:#ffffff;stroke-width:0.1668;stroke-dasharray:none;stroke-opacity:1"
       d="m 81.00612,107.3476 c 0.298741,0.38601 0.58356,1.52383 0.81482,1.99489 0.311934,0.58512 -0.05652,-0.54252 0.272634,0.38355 0.06517,0.18334 0.292622,0.9137 0.408951,1.0228 0.03213,0.0301 0.104188,-0.0301 0.136316,0 0.03213,0.0301 -0.03214,0.0977 0,0.12785 0.03213,0.0301 0.104189,-0.0301 0.136317,0 0.07188,0.0674 0.0645,0.18832 0.136317,0.2557 0.08375,0.0785 0.317661,0.0844 0.408951,0.2557 0.05005,0.0939 0.237909,0.28584 0.272633,0.38355 0.045,0.12653 0.02981,0.41148 0.136317,0.5114 0.03214,0.0301 0.104189,-0.0302 0.136317,0 0.03214,0.0301 -0.03213,0.0977 0,0.12785 0.03214,0.0301 0.09568,-0.019 0.136317,0 0.567319,0.26604 -0.145723,-0.008 0.136317,0.2557 0.07188,0.0674 0.193296,0.0683 0.272635,0.12785 0.150533,0.11296 0.254729,0.27507 0.40895,0.38356 0.06412,0.0451 0.355953,0.0782 0.408951,0.12785 0.03213,0.0301 -0.03214,0.0977 0,0.12784 0.111511,0.10459 0.532548,0.11593 0.681584,0.25571 0.03214,0.0301 -0.03214,0.0977 0,0.12785 0.0627,0.0588 0.438068,0.20543 0.545268,0.2557 0.04064,0.019 0.104189,-0.0301 0.136317,0 0.03213,0.0302 -0.03214,0.0977 0,0.12785 0.06818,0.0639 0.340796,-0.064 0.40895,0 0.03214,0.0302 -0.03213,0.0977 0,0.12784 0.09249,0.0868 0.420511,-0.0585 0.545269,0 0.196366,0.0921 0.672658,0.38774 0.954218,0.25571 0.146537,-0.0687 0.293104,-0.14706 0.40895,-0.25571 0.03213,-0.0301 -0.03206,-0.0977 0,-0.12784 0.03213,-0.0301 0.104189,0.0302 0.136325,0 0.06427,-0.0603 -0.06427,-0.19544 0,-0.25571 0.04854,-0.0456 0.404149,-0.12334 0.408943,-0.12784 0.03214,-0.0301 -0.03214,-0.0977 0,-0.12785 0.03214,-0.0301 0.09568,0.0191 0.136317,0 0.567319,-0.26605 -0.145732,0.008 0.136317,-0.25571 0.06818,-0.0639 0.204472,-0.0639 0.272633,-0.12784 0.03214,-0.0301 -0.03206,-0.0977 0,-0.12785 0.03214,-0.0302 0.115998,0.0381 0.136318,0 0.04064,-0.0762 -0.02883,-0.17485 0,-0.25571 0.0648,-0.18224 0.196291,-0.1841 0.272634,-0.2557 0.06427,-0.0603 -0.06427,-0.19543 0,-0.2557 0.03214,-0.0301 0.104196,0.0301 0.136317,0 0.02777,-0.0261 0.136317,-0.91235 0.136317,-1.0228 0,-0.0853 0.08128,-0.21758 0,-0.2557 -0.08129,-0.0381 -0.208371,0.0603 -0.272634,0 -0.06427,-0.0603 0.04064,-0.17946 0,-0.2557 -0.01324,-0.025 -0.24305,-0.1001 -0.272634,-0.12785 -0.06427,-0.0603 0.06427,-0.19543 0,-0.25569 -0.03206,-0.0301 -0.09568,0.0191 -0.136318,0 -0.28642,-0.13432 0.003,-0.25322 -0.136316,-0.38355 -0.03206,-0.0301 -0.104189,0.0301 -0.136317,0 -0.06427,-0.0603 0.04064,-0.17947 0,-0.25571 -0.150707,-0.28269 -0.0846,-0.0397 -0.272634,-0.12785 -0.567318,-0.26605 0.145725,0.009 -0.136317,-0.2557 -0.0075,-0.007 -0.40156,-0.24877 -0.408951,-0.2557 -0.03206,-0.0301 0.03213,-0.0977 0,-0.12785 -0.06427,-0.0603 -0.208369,0.0603 -0.272625,0 -0.03214,-0.0301 0.03205,-0.0977 0,-0.12785 -0.03214,-0.0301 -0.729473,-0.55676 -0.770112,-0.57582 -0.283901,-0.13314 -2.246645,-2.42601 -2.728303,-2.62273 M 82.93826,96.958447 c 0.0081,0.05139 0.120309,-0.02321 0.171417,0 0.199678,0.09071 0.314576,0.220772 0.514254,0.311482 0.102217,0.04643 0.26203,-0.07341 0.342843,0 0.04042,0.0367 -0.0511,0.132523 0,0.155738 0.102209,0.04643 0.230775,-0.02037 0.342836,0 0.177183,0.03219 0.342835,0.103828 0.514253,0.155741 0.05712,0.05192 0.09476,0.132525 0.171417,0.15574 0.154282,0.04672 0.359981,-0.04672 0.514261,0 0.806432,0.244225 1.705268,0.155741 2.571283,0.155741 0.457116,0 -0.05712,0.05192 0.171417,-0.155741 0.06676,-0.06069 0.581069,0 0.685672,0 0.15188,0 0.579299,0.04832 0.685678,0 0.05111,-0.02321 -0.04042,-0.119029 0,-0.15574 0.05705,-0.05182 0.651068,0.01047 0.685679,0 0.197209,-0.05972 1.778284,-1.206659 1.885603,-1.401662 0.02559,-0.04643 -0.04042,-0.119034 0,-0.155741 0.08081,-0.07341 0.26203,0.07341 0.342836,0 0.669001,-0.607813 -0.03966,-0.08364 0.171418,-0.467221 0.05615,-0.10198 0.417688,-0.579094 0.514253,-0.622962 0.0511,-0.02321 0.131042,0.0367 0.171425,0 0.112377,-0.1021 0.08554,-0.544934 0.171418,-0.622961 0.04042,-0.0367 0.131034,0.03671 0.171418,0 0.08228,-0.07476 0.236585,-0.526427 0.342836,-0.622961 0.0857,-0.07787 0.25713,-0.07787 0.342835,-0.155741 0.08082,-0.07341 0.08082,-0.238064 0,-0.311481 -0.09034,-0.08208 -0.252487,-0.07366 -0.342835,-0.155741 -0.04042,-0.0367 0.04042,-0.119032 0,-0.155739 -0.08081,-0.07341 -0.262031,0.07341 -0.342836,0 -0.114861,-0.104355 0.11486,-0.207125 0,-0.31148 -0.04042,-0.03671 -0.131041,0.03671 -0.171418,0 -0.0093,-0.0085 -0.333571,-0.45878 -0.342843,-0.467222 -0.121205,-0.110125 -1.009518,0 -1.199932,0 -0.531247,0 -2.264714,-0.122783 -2.571274,0.155741 -0.04042,0.03671 0.04042,0.11903 0,0.155741 -0.08081,0.07341 -0.262031,-0.07342 -0.342843,0 -0.04042,0.03671 0.04042,0.119029 0,0.15574 -0.0718,0.06526 -0.410367,0.108545 -0.514254,0.15574 -0.742319,0.337209 0.399475,-0.02573 -0.342836,0.311479 -0.245721,0.111622 -0.605046,0.139733 -0.857096,0.311482 -0.09465,0.0645 -0.519145,0.585139 -0.685678,0.622962 -0.1663,0.03777 -0.355096,-0.05785 -0.514254,0 -0.261774,0.09513 -0.443397,0.476213 -0.685672,0.622961 -0.95613,0.579117 0.242041,-0.181408 -0.685678,0.15574 -0.732839,0.682639 -1.955464,1.148501 -1.885603,2.180365 z m 8.200938,4.561123 c -0.04809,0.0181 0.02341,0.097 0,0.13819 -0.332111,0.58472 -0.499374,0.88709 -0.195125,1.42276 0.04741,0.0834 0.279528,0.86251 0.352101,0.92639 0.03695,0.0326 0.133585,-0.0412 0.156968,0 0.06276,0.11055 -0.06276,0.30401 0,0.41456 0.326662,0.5751 -0.01084,-0.14773 0.313943,0.13818 0.07398,0.0651 -0.04681,0.19397 0,0.27637 0.08881,0.15636 0.196516,0.39769 0.313944,0.55275 0.06487,0.0857 0.07421,0.20353 0.156975,0.27637 0.03695,0.0325 0.119993,-0.0326 0.156976,0 0.07398,0.0651 -0.07398,0.21123 0,0.27637 0.03695,0.0325 0.119941,-0.0326 0.156968,0 0.07398,0.0651 -0.04682,0.19397 0,0.27636 0.106032,0.18669 0.21211,0.37345 0.313951,0.55275 0.11483,0.2022 0.490757,0.58769 0.62788,0.82912 -0.07665,0.20921 0.305872,1.24207 0.627895,1.79641 1.95493,3.36526 0.606171,0.79092 0.94183,1.38185 0.10528,0.18536 0.07029,0.60007 0.156976,0.82911 0.119278,0.31502 0.309488,0.54491 0.470912,0.82911 0.151293,0.26636 0.0052,0.70083 0.156975,0.9673 0.25183,0.60952 0.572639,0.85093 0.627887,1.52004 0.09484,0.25048 0.627312,1.10446 0.78486,1.38186 0.09418,0.16582 0.376732,0.24873 0.470919,0.41456 0.02341,0.0412 -0.03695,0.10563 0,0.13818 0.07849,0.069 0.235456,0.069 0.313943,0.13818 0.324774,0.28589 -0.496311,-0.0112 0.156976,0.27637 0.09359,0.0413 0.239941,-0.0651 0.313936,0 0.03695,0.0326 -0.03695,0.10564 0,0.13819 0.09644,0.0849 0.365809,0.0913 0.470916,0.27637 0.02344,0.0412 -0.03693,0.10564 0,0.13818 0.03692,0.0325 0.12,-0.0325 0.156981,0 0.08277,0.0729 0.07423,0.20355 0.156972,0.27638 0.03692,0.0325 0.119991,-0.0325 0.156972,0 0.03692,0.0326 -0.03692,0.10563 0,0.13818 0.03692,0.0326 0.119991,-0.0325 0.156972,0 0.03693,0.0326 -0.02344,0.097 0,0.13819 0.111248,0.19586 0.416449,0.49069 0.627889,0.55274 0.081,0.0238 0.73261,0.0459 0.78486,0 0.0457,-0.0402 -0.057,-1.92233 0.15698,-2.48734 0.21485,-0.56699 -0.51053,0.48283 0.15697,-0.69093 0.10455,-0.18408 0.10455,-1.33595 0,-1.52004 -0.35922,-0.63241 0.065,0.58638 -0.31395,-0.41455 -0.0296,-0.0782 0.063,-0.35906 0,-0.41456 -0.0369,-0.0325 -0.11999,0.0325 -0.15697,0 -0.13503,-0.11887 0.0639,-0.66029 0,-0.82911 -0.16279,-0.42989 -0.0484,-0.3512 -0.15697,-0.82911 -0.0459,-0.202 -0.25719,-0.3529 -0.31395,-0.55275 -0.0508,-0.17874 0.0507,-0.37399 0,-0.55273 -0.0957,-0.33692 -0.37541,-0.631 -0.470915,-0.9673 -0.108467,-0.38192 0.141085,-0.8711 0,-1.24366 -0.02344,-0.0618 -0.133583,-0.0764 -0.156962,-0.1382 -0.03313,-0.0874 0.02534,-0.187 0,-0.27637 -0.06844,-0.24093 -0.245534,-0.44999 -0.313954,-0.69093 -0.112624,-0.39658 0,-0.97952 0,-1.38185 0,-0.32407 -0.03692,0.0651 0.156972,-0.27637 0.08894,-0.15662 -0.142363,-0.70378 0,-0.82912 0.03693,-0.0326 0.119991,0.0325 0.156982,0 0.0523,-0.046 0.104632,-0.36849 0.156962,-0.41455 0.03692,-0.0326 0.119995,0.0326 0.156975,0 0.0739,-0.0651 -0.0739,-0.21123 0,-0.27637 0.0369,-0.0326 0.11999,0.0326 0.15697,0 0.037,-0.0326 -0.0234,-0.097 0,-0.13819 0.32666,-0.57509 -0.0108,0.14773 0.31394,-0.13818 0.13081,-0.11516 0.0262,-0.43759 0.15698,-0.55275 0.10278,-0.0905 0.36276,-0.0859 0.47092,-0.27637 0.0476,-0.0837 0.0912,-0.35665 0.15697,-0.41456 0.0369,-0.0326 0.11998,0.0326 0.15697,0 0.0739,-0.0651 -0.0739,-0.21123 0,-0.27637 0.32475,-0.2859 -0.0126,0.43691 0.31395,-0.13818 0.0903,-0.15889 0.2185,-0.38472 0.31394,-0.55274 0.11459,-0.20178 -0.0452,-0.51298 0.15697,-0.69093 0.0369,-0.0326 0.11998,0.0326 0.15697,0 0.003,-0.003 0.16362,-1.393554 0.31395,-1.658228 0.0555,-0.09782 0.25838,-0.178555 0.31395,-0.27637 0.0841,-0.148149 -0.0842,-0.128224 0,-0.276372 0.0911,-0.160381 0.25951,-0.459693 0.47091,-0.55274 0.0468,-0.0206 0.11999,0.03257 0.15698,0 0.0523,-0.04607 0.10464,-0.368496 0.15696,-0.414558 0.0828,-0.07283 0.23122,-0.06535 0.31395,-0.138185 0.0369,-0.03258 -0.0369,-0.105614 0,-0.138185 0.0739,-0.06514 0.22034,0.04119 0.31395,0 0.36681,-0.161457 0.55367,-0.487406 0.78486,-0.690928 0.1435,-0.126329 0.4891,-0.536732 0.31393,-0.690928 -0.18888,-0.166284 -0.35113,-0.01637 -0.62789,-0.138185 -0.62655,-0.391173 -1.77286,-0.205249 -2.51155,-0.138185 -0.47307,0.244496 -0.92236,0.467529 -1.41275,0.690927 -0.1404,0.0618 -0.31699,-0.0271 -0.47092,0 -0.52022,0.09159 -0.922778,0.408968 -1.412745,0.552743 -0.18841,0.05529 -0.125534,-0.05528 -0.313944,0 -0.393216,0.115384 -0.548942,0.414392 -0.94184,0.552741 -0.09716,0.03422 -0.220344,-0.04119 -0.313943,0 -0.272112,0.119746 0.755768,-0.305316 -0.47092,0.414557 -0.792152,0.4649 -1.852832,0.518506 -2.668529,0.967298 -1.03543,0.569696 -1.528031,1.326808 -2.197605,2.210968 -0.169235,0.22348 0.209296,-0.82911 0.47092,-0.69093 0.261615,0.13819 -0.313944,0.46062 -0.47092,0.69093 -0.366271,0.0921 -0.748678,0.14428 -1.098806,0.27637 z m -6.128587,-5.649604 c -4.302596,0 -11.538356,2.879583 -11.538356,5.203134 0,2.32356 6.145051,7.22809 10.671822,7.44974 3.537625,0.17321 8.65521,-1.75259 9.117279,-4.93991 0.515284,-3.55449 -3.948156,-7.712964 -8.250745,-7.712964 z"
       sodipodi:nodetypes="csssssssssscccssssccsccscssscccscscscsccscsssscccccscsccscscccsssssscsssssscsccssscscsssccssccsccccssssssccsccccssssssscssssssscsscssccscssccccccsscsccsssssscccsssssssscccssssscscssssssscssssssssssscsssscsssas" />
  </g>
  <g
     inkscape:groupmode="layer"
     id="layer2"
     inkscape:label="Layer 8"
     style="display:inline">
    <path
       id="path143"
       style="display:inline;fill:#ffffff;fill-opacity:1;fill-rule:nonzero;stroke:#ffffff;stroke-width:0.412497;stroke-dasharray:none;stroke-opacity:1"
       d="m 87.199242,91.236081 c 1.543355,1.915842 3.625743,7.935784 8.537117,12.823529 2.583351,2.57091 2.544728,1.21965 4.742461,3.18815 1.00318,0.89747 1.79465,0.94628 2.76032,1.23563 1.22786,0.36792 2.50131,0.99478 3.79542,0.61783 1.94501,-0.87064 1.11089,-1.80443 1.80673,-2.13242 2.19783,-1.03598 1.8782,-1.6101 3.36887,-3.11907 0.0867,-0.0775 0.62033,-3.897749 0.26435,-4.057108 -1.54693,-0.681485 -2.43564,-2.025393 -3.36973,-3.047858 -0.45357,-0.327417 -0.37775,-0.02444 -1.72518,-1.235643 -0.0813,-0.07282 -1.84641,-1.345249 -1.94928,-1.39129 -0.71859,-0.321683 -5.686603,-5.861712 -6.905749,-6.337042 M 93.906857,67.464693 c 0.0073,0.04421 1.59059,-0.344374 1.652216,0.177782 5.053747,1.128211 10.248077,1.129175 15.408527,1.182955 3.21758,-1.844889 5.44835,-3.538998 6.71975,-5.698548 0.9262,-1.130813 1.88769,-2.256733 2.98712,-3.224944 0.21693,-0.188148 1.13482,-1.478798 1.35175,-1.666948 0.20454,-0.177391 0.20184,-0.572143 0,-0.752599 0,0 -1.24129,-0.444482 -1.73554,-0.859872 -0.56153,-0.471928 -0.92388,-1.287762 -1.30167,-1.774226 -0.3068,-0.266084 -2.55525,0 -3.03723,0 -1.34465,0 -4.18773,0.138582 -6.18563,0.698964 -1.18875,0.333428 -2.31594,0.899664 -3.35988,1.558831 -4.57548,2.889071 -13.094967,4.133142 -12.499413,10.358605 z m 19.806753,10.069458 c -1.56806,3.748387 0.58221,7.274032 2.14194,9.429398 0.45414,0.422482 3.11572,3.093663 5.40718,9.60195 1.25346,2.490798 -0.20389,-0.34934 1.89993,3.580831 0.26649,0.44787 0.6619,1.2079 0.88132,1.7613 2.57534,6.61346 5.74858,14.69735 12.71429,17.69581 0.20502,0.0575 1.85437,0.11114 1.9866,0 0.11547,-0.097 0.16535,-2.50732 0.13797,-3.7618 -0.0267,-1.22302 -1.97395,-0.83745 -0.29442,-3.6581 0.26466,-0.4448 0.78116,-2.25588 0.69172,-3.41333 -0.069,-0.89366 0.2079,-1.55163 -0.93258,-2.52209 -0.34177,-0.28722 0.16173,-1.5954 0,-2.0033 -0.0777,-1.28248 -0.51286,-1.53826 -1.01904,-2.64712 -0.12842,-0.43188 -0.0446,-1.59536 -0.17293,-2.027252 -0.24215,-0.814051 -0.95021,-1.524611 -1.19194,-2.337183 -0.27454,-0.922797 0.35708,-2.104726 0,-3.004948 -1.17288,-1.281668 -2.40527,-6.614107 -1.80899,-8.08905 2.58162,-2.741075 -1.66756,1.037301 2.79304,-2.23738 0.33108,-0.278234 1.27521,-2.582843 1.60633,-2.86108 2.87483,-1.075349 2.26185,-3.236816 3.36949,-4.842189 0.3806,-1.481859 1.72714,-3.999059 1.98661,-5.342136 1.87341,-2.101732 2.21388,-1.906064 3.3339,-2.843619 0.73719,-0.617093 1.64342,-1.338999 2.2286,-1.830748 0.36324,-0.305236 1.23799,-1.296852 0.79462,-1.669417 -0.37472,-0.314904 -3.42864,-2.533005 -11.52232,1.001651 -3.6186,0.173575 -6.81861,2.004066 -9.93305,3.672719 -2.00508,1.123288 -4.68981,1.252812 -6.75448,2.337183 -2.62084,1.376498 -3.86768,3.205834 -5.56247,5.34213 -0.42837,0.539962 0.52976,-2.003298 1.19198,-1.669415 0.66216,0.333883 -0.79465,1.112946 -1.19198,1.669415 -0.9313,0.209583 -1.87454,0.362703 -2.7813,0.66777 z M 98.201182,63.883593 c -10.89052,0 -29.205369,6.95764 -29.205369,12.571806 0,5.614171 15.554094,17.464482 27.012053,18.000027 8.954274,0.418525 21.907694,-4.234612 23.077254,-11.935809 1.30427,-8.588318 -9.9934,-18.636024 -20.883938,-18.636024 z"
       sodipodi:nodetypes="casasssscscccscscssaccaacsscssccasacssssssccssassscsssssssasss" />
  </g>
  <g
     inkscape:groupmode="layer"
     id="layer4"
     inkscape:label="Layer 4"
     style="display:inline">
    <ellipse
       style="fill:#a22041;fill-opacity:1;fill-rule:nonzero;stroke:#a22041;stroke-width:0.117205;stroke-dasharray:none;stroke-opacity:1"
       id="path145"
       cx="110.037"
       cy="117.20795"
       rx="2.399364"
       ry="2.3993647" />
    <circle
       style="fill:#a22041;fill-opacity:1;fill-rule:nonzero;stroke:#a22041;stroke-width:0.465;stroke-dasharray:none;stroke-opacity:1"
       id="path146"
       cx="52.298481"
       cy="125.24435"
       r="7.0473127" />
    <circle
       style="fill:#a22041;fill-opacity:1;fill-rule:nonzero;stroke:#a22041;stroke-width:0.465;stroke-dasharray:none;stroke-opacity:1"
       id="path147"
       cx="49.331188"
       cy="63.920368"
       r="1.3600078" />
    <ellipse
       style="fill:#a22041;fill-opacity:1;fill-rule:nonzero;stroke:#a22041;stroke-width:0.465;stroke-dasharray:none;stroke-opacity:1"
       id="path148"
       cx="61.200348"
       cy="30.167446"
       rx="1.3600078"
       ry="1.2363707" />
    <circle
       style="fill:#a22041;fill-opacity:1;fill-rule:nonzero;stroke:#a22041;stroke-width:0.465;stroke-dasharray:none;stroke-opacity:1"
       id="path149"
       cx="86.600357"
       cy="60.733002"
       r="1.6072818" />
    <ellipse
       style="fill:#a22041;fill-opacity:1;fill-rule:nonzero;stroke:#a22041;stroke-width:0.465;stroke-dasharray:none;stroke-opacity:1"
       id="path150"
       cx="137.48442"
       cy="148.98268"
       rx="9.3964176"
       ry="9.2727804" />
    <path
       id="path151"
       style="fill:#a22041;stroke:#a22041;stroke-width:0.465"
       d="m 78.830334,169.39631 c 2.250111,-5.24308 7.459478,-8.9154 13.526561,-8.9154 6.252845,0 11.233365,3.77317 13.455025,8.8021"
       sodipodi:nodetypes="csc" />
    <circle
       style="fill:#a22041;fill-opacity:1;fill-rule:nonzero;stroke:#a22041;stroke-width:0.465;stroke-dasharray:none;stroke-opacity:1"
       id="path152"
       cx="28.065615"
       cy="133.15712"
       r="2.3491044" />
    <ellipse
       style="fill:#a22041;fill-opacity:1;fill-rule:nonzero;stroke:#a22041;stroke-width:0.465;stroke-dasharray:none;stroke-opacity:1"
       id="path154"
       cx="104.34969"
       cy="13.970989"
       rx="2.7200155"
       ry="2.5963783" />
  </g>
  <g
     inkscape:groupmode="layer"
     id="layer5"
     inkscape:label="Layer 5"
     style="display:inline">
    <ellipse
       style="fill:#cd5e3c;fill-opacity:1;fill-rule:nonzero;stroke:#cd5e3c;stroke-width:0.465;stroke-dasharray:none;stroke-opacity:1"
       id="path155"
       cx="61.200348"
       cy="139.58624"
       rx="3.585"
       ry="3.5854752" />
    <ellipse
       style="fill:#cd5e3c;fill-opacity:1;fill-rule:nonzero;stroke:#cd5e3c;stroke-width:0.465;stroke-dasharray:none;stroke-opacity:1"
       id="path156"
       cx="87.535049"
       cy="110.16063"
       rx="1.9781932"
       ry="1.8545561" />
    <ellipse
       style="fill:#cd5e3c;fill-opacity:1;fill-rule:nonzero;stroke:#cd5e3c;stroke-width:0.465;stroke-dasharray:none;stroke-opacity:1"
       id="path157"
       cx="65.033096"
       cy="51.062111"
       rx="1.9781932"
       ry="2.1018302" />
    <path
       id="path158"
       style="fill:#cd5e3c;stroke:#cd5e3c;stroke-width:0.465"
       d="m 10.774802,169.52428 c -2.1077777,-2.82975 -3.35658,-6.34602 -3.3565796,-10.1561 1.1e-6,-9.35475 7.5281706,-16.93828 16.8146416,-16.93828 9.286471,0 16.814641,7.58353 16.814642,16.93828 0,3.73885 -1.20254,7.19476 -3.239254,9.99666"
       sodipodi:nodetypes="csssc" />
    <ellipse
       style="fill:#cd5e3c;fill-opacity:1;fill-rule:nonzero;stroke:#cd5e3c;stroke-width:0.465;stroke-dasharray:none;stroke-opacity:1"
       id="path159"
       cx="160.11002"
       cy="111.76791"
       rx="7.5418615"
       ry="7.6654983" />
    <ellipse
       style="fill:#cd5e3c;fill-opacity:1;fill-rule:nonzero;stroke:#cd5e3c;stroke-width:0.465;stroke-dasharray:none;stroke-opacity:1"
       id="path160"
       cx="154.05179"
       cy="128.95346"
       rx="1.2363707"
       ry="1.1127336" />
    <circle
       style="fill:#cd5e3c;fill-opacity:1;fill-rule:nonzero;stroke:#cd5e3c;stroke-width:0.465;stroke-dasharray:none;stroke-opacity:1"
       id="path161"
       cx="16.320091"
       cy="80.364098"
       r="2.4727414" />
    <ellipse
       style="fill:#cd5e3c;fill-opacity:1;fill-rule:nonzero;stroke:#cd5e3c;stroke-width:0.465;stroke-dasharray:none;stroke-opacity:1"
       id="path162"
       cx="119.4334"
       cy="17.680101"
       rx="1.4836448"
       ry="1.3600078" />
    <circle
       style="fill:#cd5e3c;fill-opacity:1;fill-rule:nonzero;stroke:#cd5e3c;stroke-width:0.465;stroke-dasharray:none;stroke-opacity:1"
       id="path163"
       cx="148.7354"
       cy="60.705803"
       r="1.3600078" />
    <ellipse
       style="fill:#cd5e3c;fill-opacity:1;fill-rule:nonzero;stroke:#cd5e3c;stroke-width:0.465;stroke-dasharray:none;stroke-opacity:1"
       id="path164"
       cx="99.52784"
       cy="132.53894"
       rx="3.8327491"
       ry="3.9563863" />
  </g>
  <g
     inkscape:label="Layer 1"
     inkscape:groupmode="layer"
     id="layer1"
     style="display:inline"
     transform="translate(0,-0.24727414)">
    <ellipse
       style="fill:#0a214f;fill-opacity:1;stroke:#ffffff;stroke-width:0.465;stroke-dasharray:none;stroke-opacity:1"
       id="path76"
       cx="145.51396"
       cy="95.132713"
       rx="2.0241635"
       ry="1.8401487" />
    <circle
       style="fill:#ffffff;fill-opacity:1;stroke:#ffffff;stroke-width:0.465;stroke-dasharray:none;stroke-opacity:1"
       id="path77"
       cx="50.788101"
       cy="142.42751"
       r="1.8401487" />
    <ellipse
       style="fill:#0a214f;fill-opacity:1;stroke:#ffffff;stroke-width:0.465;stroke-dasharray:none;stroke-opacity:1"
       id="path78"
       cx="112.71099"
       cy="37.690235"
       rx="1.5218534"
       ry="1.3477855" />
    <circle
       style="fill:#ffffff;fill-opacity:1;stroke:#ffffff;stroke-width:0.465;stroke-dasharray:none;stroke-opacity:1"
       id="path80"
       cx="37.55069"
       cy="52.25433"
       r="1.2881041" />
    <circle
       style="fill:#0a214f;fill-opacity:1;stroke:#ffffff;stroke-width:0.465;stroke-dasharray:none;stroke-opacity:1"
       id="path81"
       cx="27.160034"
       cy="65.212074"
       r="1.6561338" />
    <ellipse
       style="fill:#0a214f;fill-opacity:1;stroke:#ffffff;stroke-width:0.465;stroke-dasharray:none;stroke-opacity:1"
       id="path82"
       cx="23.921932"
       cy="113.72119"
       rx="5.8884759"
       ry="4.048327" />
    <circle
       style="fill:#0a214f;fill-opacity:1;stroke:#ffffff;stroke-width:0.465;stroke-dasharray:none;stroke-opacity:1"
       id="path83"
       cx="98.263939"
       cy="146.84386"
       r="2.2081783" />
    <circle
       style="fill:#0a214f;fill-opacity:1;stroke:#ffffff;stroke-width:0.465;stroke-dasharray:none;stroke-opacity:1"
       id="path84"
       cx="104.08916"
       cy="155.13605"
       r="2.0241635" />
    <circle
       style="fill:#0a214f;fill-opacity:1;stroke:#ffffff;stroke-width:0.465;stroke-dasharray:none;stroke-opacity:1"
       id="path85"
       cx="106.54461"
       cy="145.18773"
       r="1.6561338" />
    <ellipse
       style="fill:#0a214f;fill-opacity:1;stroke:#ffffff;stroke-width:0.465;stroke-dasharray:none;stroke-opacity:1"
       id="path87"
       cx="139.8513"
       cy="125.31412"
       rx="2.2081783"
       ry="2.0241635" />
    <circle
       style="fill:#0a214f;fill-opacity:1;stroke:#ffffff;stroke-width:0.465;stroke-dasharray:none;stroke-opacity:1"
       id="path88"
       cx="146.65985"
       cy="142.24348"
       r="2.0241635" />
    <circle
       style="fill:#0a214f;fill-opacity:1;stroke:#ffffff;stroke-width:0.465;stroke-dasharray:none;stroke-opacity:1"
       id="path89"
       cx="76.182152"
       cy="49.684013"
       r="1.472119" />
    <ellipse
       style="fill:#0a214f;fill-opacity:1;stroke:#ffffff;stroke-width:0.465;stroke-dasharray:none;stroke-opacity:1"
       id="path90"
       cx="149.43159"
       cy="29.939211"
       rx="3.1742232"
       ry="2.3806674" />
    <circle
       style="fill:#0a214f;fill-opacity:1;stroke:#ffffff;stroke-width:0.465;stroke-dasharray:none;stroke-opacity:1"
       id="path93"
       cx="14.905205"
       cy="125.31413"
       r="1.6561338" />
    <ellipse
       style="fill:#0a214f;fill-opacity:1;stroke:#ffffff;stroke-width:0.465;stroke-dasharray:none;stroke-opacity:1"
       id="path94"
       cx="49.499996"
       cy="154.94052"
       rx="3.1282527"
       ry="2.5762081" />
    <circle
       style="fill:#ffffff;fill-opacity:1;fill-rule:nonzero;stroke:#ffffff;stroke-width:0.465;stroke-dasharray:none;stroke-opacity:1"
       id="path165"
       cx="113.3925"
       cy="124.87096"
       r="1.1127336" />
    <circle
       style="fill:#ffffff;fill-opacity:1;fill-rule:nonzero;stroke:#ffffff;stroke-width:0.465;stroke-dasharray:none;stroke-opacity:1"
       id="path166"
       cx="92.109619"
       cy="32.269276"
       r="1.1127336" />
    <ellipse
       style="fill:#ffffff;fill-opacity:1;fill-rule:nonzero;stroke:#ffffff;stroke-width:0.465;stroke-dasharray:none;stroke-opacity:1"
       id="path167"
       cx="115.13866"
       cy="157.93172"
       rx="2.4727414"
       ry="2.3491044" />
    <ellipse
       style="fill:#ffffff;fill-opacity:1;fill-rule:nonzero;stroke:#ffffff;stroke-width:0.465;stroke-dasharray:none;stroke-opacity:1"
       id="path168"
       cx="62.313084"
       cy="91.985977"
       rx="1.2363707"
       ry="0.98909658" />
    <circle
       style="fill:#ffffff;fill-opacity:1;fill-rule:nonzero;stroke:#ffffff;stroke-width:0.465;stroke-dasharray:none;stroke-opacity:1"
       id="path172"
       cx="68.9067"
       cy="6.8043389"
       r="0.80525362" />
    <circle
       style="fill:#ffffff;fill-opacity:1;fill-rule:nonzero;stroke:#ffffff;stroke-width:0.465;stroke-dasharray:none;stroke-opacity:1"
       id="path173"
       cx="80.870468"
       cy="4.0434699"
       r="1.0353261" />
    <ellipse
       style="fill:#007989;fill-opacity:1;fill-rule:nonzero;stroke:#ffffff;stroke-width:0.465;stroke-dasharray:none;stroke-opacity:1"
       id="path174"
       cx="35.891304"
       cy="23.714666"
       rx="2.7608697"
       ry="2.530797" />
    <circle
       style="fill:#007989;fill-opacity:1;stroke:#ffffff;stroke-width:0.465;stroke-dasharray:none;stroke-opacity:1"
       id="circle185"
       cx="132.99336"
       cy="9.5753937"
       r="1.6561338" />
    <ellipse
       style="fill:#ffffff;fill-opacity:1;fill-rule:nonzero;stroke:#ffffff;stroke-width:0.465;stroke-dasharray:none;stroke-opacity:1"
       id="ellipse1"
       cx="66.242538"
       cy="65.658623"
       rx="1.2363707"
       ry="0.98909658" />
  </g>
  <g
     inkscape:groupmode="layer"
     id="layer8"
     inkscape:label="Layer 7">
    <path
       style="fill:#007989;fill-opacity:1;fill-rule:nonzero;stroke:#007989;stroke-width:0.413907;stroke-dasharray:none;stroke-opacity:1"
       d="m 155.44738,81.587537 -4.72288,4.203994 5.62145,1.863675 z"
       id="path176"
       sodipodi:nodetypes="cccc" />
    <path
       style="fill:#0a214f;fill-opacity:1;fill-rule:nonzero;stroke:#0a214f;stroke-width:0.465;stroke-dasharray:none;stroke-opacity:1"
       d="m 20.191886,31.332236 -2.569004,8.595358 8.835451,-1.980775 z"
       id="path183"
       sodipodi:nodetypes="cccc" />
    <path
       style="fill:#0a214f;fill-opacity:1;fill-rule:nonzero;stroke:#0a214f;stroke-width:0.465;stroke-dasharray:none;stroke-opacity:1"
       d="m 69.795257,21.896552 5.24605,0.456178 -3.061195,3.823493 z"
       id="path184"
       sodipodi:nodetypes="cccc" />
  </g>
</svg>
